<svg width="150" height="120.5" xmlns="http://www.w3.org/2000/svg">

 <g>
  <title>background</title>
  <rect fill="none" id="canvas_background" height="122.5" width="152" y="-1" x="-1"/>
 </g>
 <g>
  <title>Layer 1</title>
  <path id="svg_23" d="m36.7,67.4c-0.2,-0.6 -0.2,-0.7 -1,-0.5l-3,0.5c-1,0.2 -1.8,0.2 -2.5,-0.4c-0.3,-0.3 -0.6,-0.6 -0.7,-0.9l0.3,-0.2c0.3,0.4 0.7,0.6 1.2,0.6c0.5,0 1,-0.1 1.7,-0.2l2.8,-0.5c0.7,-0.1 0.8,-0.2 0.7,-0.9l0.3,0l0.4,2.4l-0.2,0.1z" fill="#005D7F"/>
  <path id="svg_24" d="m32,70.6l0.3,-0.1c0.2,0.6 0.3,0.7 1,0.5l3.3,-1c0.7,-0.2 0.7,-0.3 0.6,-1l0.3,-0.1l0.7,2.4l-0.3,0.1c-0.2,-0.6 -0.3,-0.7 -1,-0.5l-3.3,1c-0.7,0.2 -0.8,0.3 -0.6,1l-0.3,0.1l-0.7,-2.4z" fill="#005D7F"/>
  <path id="svg_25" d="m34.7,78l0.3,-0.1c0.3,0.4 0.4,0.5 0.7,0.2c0.2,-0.2 0.5,-0.5 0.9,-0.8l-0.7,-1.6c-0.3,0 -0.7,0.1 -1.1,0.1c-0.5,0.1 -0.6,0.1 -0.4,0.8l-0.4,0l-0.8,-1.8l0.3,-0.1c0.3,0.5 0.4,0.6 1.2,0.5l4.8,-0.2l0.3,0.3c-1.2,1.1 -2.4,2.3 -3.5,3.4c-0.6,0.6 -0.6,0.7 -0.5,1.3l-0.3,0.1l-0.8,-2.1zm3.6,-2.5l0,0c-0.7,0 -1.4,0.1 -2.1,0.1l0.6,1.3l1.5,-1.4z" fill="#005D7F"/>
  <path id="svg_26" d="m44.6,84c-0.3,-0.4 -0.5,-0.5 -0.8,-0.3c-0.2,0.1 -0.6,0.3 -1.2,0.8l-2.9,2l-0.2,-0.3l1.5,-5.5l0,0l-1.7,1.2c-0.6,0.4 -0.9,0.7 -1.1,0.9c-0.3,0.3 -0.3,0.5 0,1l-0.2,0.2l-1.2,-1.7l0.2,-0.2c0.3,0.4 0.5,0.5 0.9,0.3c0.3,-0.1 0.6,-0.3 1.2,-0.8l1.5,-1.1c0.5,-0.3 0.6,-0.4 0.6,-0.7c0.1,-0.3 0,-0.5 -0.2,-0.8l0.2,-0.2l0.8,1.2l-1.3,5.1l0,0l1.4,-1c0.6,-0.4 0.9,-0.7 1.1,-0.9c0.3,-0.3 0.3,-0.5 0,-1l0.2,-0.2l1.2,1.7l0,0.3z" fill="#005D7F"/>
  <path id="svg_27" d="m47.4,91c-0.4,-0.3 -0.5,-0.3 -0.8,0.1l-0.6,0.6c-0.2,0.2 -0.4,0.4 -0.5,0.6c-0.5,-0.3 -1.1,-0.7 -1.6,-1.2c-1.4,-1.4 -1.5,-3.1 -0.3,-4.4c1.4,-1.4 3.3,-1 4.5,0.3c0.5,0.5 0.9,1.1 1,1.4c-0.2,0.2 -0.5,0.6 -0.9,1.1l-0.2,-0.2c0.6,-0.9 0.4,-1.6 -0.2,-2.2c-0.8,-0.8 -2.2,-0.8 -3.3,0.3c-0.9,0.9 -1.4,2.4 -0.3,3.5c0.2,0.2 0.3,0.3 0.5,0.3c0.2,0 0.3,0 0.5,-0.2l0.6,-0.6c0.4,-0.4 0.4,-0.5 -0.1,-1.2l0.2,-0.2l1.8,1.7l-0.3,0.3z" fill="#005D7F"/>
  <path id="svg_28" d="m55.4,93.1c-0.4,-0.2 -0.6,-0.3 -0.9,0c-0.2,0.2 -0.4,0.5 -0.9,1.2l-2,2.9l-0.2,-0.2l-0.5,-5.7l0,0l-1.2,1.7c-0.4,0.6 -0.6,1 -0.8,1.2c-0.2,0.4 -0.1,0.6 0.4,1l-0.2,0.2l-1.7,-1.2l0.2,-0.2c0.4,0.2 0.7,0.3 0.9,0c0.2,-0.2 0.4,-0.5 0.9,-1.2l1,-1.5c0.3,-0.5 0.4,-0.6 0.4,-0.9c0,-0.3 -0.1,-0.4 -0.4,-0.7l0.2,-0.2l1.2,0.8l0.6,5.3l0,0l1,-1.5c0.4,-0.6 0.6,-1 0.8,-1.2c0.2,-0.3 0.1,-0.6 -0.4,-0.9l0.2,-0.2l1.7,1.2l-0.3,0.1z" fill="#005D7F"/>
  <path id="svg_29" d="m57,99.8l0.1,-0.3c0.5,0.1 0.6,0.1 0.6,-0.3c0,-0.3 0.1,-0.7 0.1,-1.2l-1.6,-0.7c-0.2,0.2 -0.5,0.5 -0.7,0.8c-0.3,0.4 -0.3,0.5 0.2,0.8l-0.1,0.3l-1.8,-0.8l0.1,-0.3c0.5,0.2 0.7,0.1 1.3,-0.4l3.5,-3.4l0.4,0.1c-0.1,1.6 -0.3,3.3 -0.4,4.9c-0.1,0.8 0,1 0.5,1.2l-0.1,0.3l-2.1,-1zm1.1,-4.3l0,0c-0.5,0.5 -1,1 -1.5,1.5l1.3,0.6l0.2,-2.1z" fill="#005D7F"/>
  <path id="svg_30" d="m68.4,97.7c-0.5,-0.1 -0.7,0 -0.8,0.3c-0.1,0.3 -0.2,0.6 -0.4,1.4l-0.8,3.4l-0.4,-0.1l-2.5,-5.2l0,0l-0.5,2c-0.2,0.8 -0.2,1.1 -0.3,1.4c-0.1,0.4 0.1,0.6 0.7,0.8l-0.1,0.3l-2,-0.5l0.1,-0.3c0.5,0.1 0.7,0 0.8,-0.4c0.1,-0.3 0.2,-0.6 0.4,-1.4l0.4,-1.8c0.1,-0.6 0.2,-0.7 0.1,-0.9c-0.1,-0.3 -0.3,-0.4 -0.7,-0.5l0.1,-0.3l1.4,0.4l2.4,4.7l0,0l0.4,-1.7c0.2,-0.8 0.2,-1.2 0.3,-1.4c0,-0.4 -0.1,-0.6 -0.7,-0.7l0.1,-0.3l2,0.5l0,0.3z" fill="#005D7F"/>
  <path id="svg_31" d="m83.9,97.1c-0.5,0.1 -0.7,0.3 -0.6,0.6c0,0.3 0,0.6 0.1,1.3l0.1,0.9c0.2,1 0.1,1.7 -0.3,2.3c-0.3,0.5 -0.9,0.8 -1.5,0.9c-0.5,0.1 -1.1,0.1 -1.5,-0.2c-0.6,-0.3 -0.9,-0.9 -1.1,-1.9l-0.3,-2.1c-0.1,-0.8 -0.2,-0.8 -0.9,-0.8l0,-0.3l2.5,-0.4l0,0.3c-0.6,0.2 -0.7,0.2 -0.6,1l0.3,1.9c0.2,1.3 0.8,2 1.8,1.9c1.1,-0.2 1.4,-1.1 1.1,-2.6l0,-0.8c-0.1,-0.7 -0.2,-1 -0.3,-1.3c-0.1,-0.3 -0.3,-0.4 -0.9,-0.4l0,-0.3l2.1,-0.3l0,0.3z" fill="#005D7F"/>
  <path id="svg_32" d="m90,95.1c-0.4,0.2 -0.6,0.3 -0.5,0.7c0.1,0.3 0.1,0.7 0.4,1.4l1.1,3.3l-0.3,0.1l-4.9,-3l0,0l0.7,1.9c0.2,0.7 0.4,1.1 0.5,1.3c0.2,0.4 0.4,0.5 1,0.3l0.1,0.3l-2,0.7l-0.1,-0.3c0.5,-0.2 0.6,-0.4 0.5,-0.8c-0.1,-0.3 -0.1,-0.7 -0.4,-1.4l-0.6,-1.8c-0.2,-0.6 -0.2,-0.7 -0.5,-0.8c-0.2,-0.2 -0.4,-0.2 -0.8,-0.1l-0.1,-0.3l1.4,-0.5l4.5,2.9l0,0l-0.6,-1.7c-0.2,-0.7 -0.4,-1.1 -0.5,-1.3c-0.2,-0.4 -0.4,-0.4 -1,-0.2l-0.1,-0.3l2,-0.7l0.2,0.3z" fill="#005D7F"/>
  <path id="svg_33" d="m92.9,99.6l-0.1,-0.2c0.6,-0.3 0.6,-0.4 0.3,-1.1l-1.5,-3.1c-0.3,-0.7 -0.4,-0.7 -1,-0.4l-0.1,-0.3l2.2,-1.1l0.1,0.3c-0.6,0.3 -0.6,0.4 -0.3,1.1l1.5,3.1c0.3,0.7 0.4,0.7 1,0.4l0.1,0.3l-2.2,1z" fill="#005D7F"/>
  <path id="svg_34" d="m98.4,90.2c-0.4,0.4 -0.5,0.5 -0.4,1.4c0.1,0.7 0.5,2.9 1,4.7l-0.3,0.2c-1.4,-1 -3.1,-2.3 -4,-2.9c-0.6,-0.4 -0.8,-0.4 -1.2,-0.2l-0.2,-0.2l2,-1.3l0.2,0.2c-0.5,0.4 -0.4,0.5 -0.1,0.7c0.6,0.4 2.1,1.5 3,2.2l0,0c-0.3,-1.3 -0.6,-2.6 -0.8,-3.4c-0.2,-0.6 -0.2,-0.7 -0.9,-0.3l-0.1,-0.3l1.7,-1.1l0.1,0.3z" fill="#005D7F"/>
  <path id="svg_35" d="m104.9,89.8c0.2,0.3 0.6,1 0.7,1.3l-3.3,2.9l-0.2,-0.2c0.5,-0.6 0.5,-0.6 0.1,-1.2l-2.3,-2.6c-0.5,-0.6 -0.6,-0.6 -1.1,-0.2l-0.2,-0.2l3,-2.7c0.1,0.1 0.6,0.5 0.9,0.9l-0.2,0.2c-0.3,-0.2 -0.5,-0.3 -0.7,-0.3c-0.2,0 -0.4,0.1 -0.8,0.4l-0.4,0.3c-0.2,0.2 -0.2,0.2 -0.1,0.4l1.3,1.4l0.5,-0.4c0.6,-0.5 0.6,-0.6 0.3,-1.1l0.2,-0.2l1.1,1.3l-0.2,0.2c-0.5,-0.4 -0.6,-0.4 -1.2,0.1l-0.5,0.5l1,1.2c0.3,0.3 0.4,0.4 0.6,0.4c0.2,0 0.4,-0.2 0.7,-0.5c0.4,-0.4 0.6,-0.6 0.6,-0.9c0,-0.2 -0.1,-0.6 -0.2,-0.9l0.4,-0.1z" fill="#005D7F"/>
  <path id="svg_36" d="m110.2,85.9c0,0.1 -0.1,0.1 -0.2,0.2c-0.6,0.7 -1,0.8 -1.7,0.7c-0.5,-0.1 -1,-0.2 -1.5,-0.3c-0.3,0 -0.5,0 -0.7,0.3l-0.1,0.2l1,0.9c0.6,0.5 0.7,0.5 1.1,0l0.2,0.2l-1.6,1.9l-0.2,-0.2c0.4,-0.5 0.4,-0.7 -0.2,-1.1l-2.6,-2.2c-0.5,-0.5 -0.6,-0.5 -1.1,0l-0.2,-0.2l1.5,-1.8c0.5,-0.6 0.8,-0.8 1.2,-0.9c0.4,-0.1 0.9,0 1.3,0.3c0.6,0.5 0.6,1.1 0.4,1.8c0.3,0.1 1,0.2 1.4,0.2c0.6,0.1 0.9,0.1 1.1,0.1c0.3,0 0.5,-0.1 0.7,-0.2l0.2,0.1zm-4.3,0.6c0.3,-0.3 0.4,-0.6 0.4,-0.8c0,-0.4 -0.2,-0.7 -0.5,-1c-0.7,-0.6 -1.3,-0.4 -1.7,0c-0.1,0.2 -0.2,0.3 -0.2,0.4c0,0.1 0.1,0.2 0.2,0.3l1.6,1.4l0.2,-0.3z" fill="#005D7F"/>
  <path id="svg_37" d="m108.9,79.9c-0.6,-0.2 -1.2,-0.3 -1.6,0.4c-0.3,0.5 -0.2,1 0.3,1.2c0.5,0.3 0.9,0.1 1.6,-0.3c0.8,-0.5 1.6,-0.8 2.3,-0.3c0.8,0.5 1,1.6 0.3,2.7c-0.2,0.3 -0.4,0.5 -0.6,0.7c-0.2,0.2 -0.3,0.3 -0.4,0.3c-0.2,0 -0.9,-0.4 -1.3,-0.6l0.1,-0.3c0.5,0.2 1.6,0.3 2.1,-0.4c0.3,-0.5 0.2,-1 -0.3,-1.3c-0.5,-0.3 -1,-0.1 -1.6,0.2c-0.8,0.4 -1.5,0.8 -2.3,0.3c-0.8,-0.5 -1,-1.5 -0.3,-2.5c0.3,-0.4 0.6,-0.7 0.8,-0.9c0.3,0.1 0.6,0.3 1.1,0.5l-0.2,0.3z" fill="#005D7F"/>
  <path id="svg_38" d="m113.5,80.5l-0.2,-0.1c0.3,-0.6 0.2,-0.7 -0.4,-1.1l-3,-1.5c-0.7,-0.3 -0.7,-0.3 -1.1,0.3l-0.2,-0.1l1.1,-2.2l0.2,0.1c-0.3,0.6 -0.2,0.7 0.4,1l3,1.6c0.7,0.3 0.7,0.3 1.1,-0.3l0.2,0.1l-1.1,2.2z" fill="#005D7F"/>
  <path id="svg_39" d="m113,71.1c-0.5,-0.1 -0.7,-0.1 -0.9,0c-0.2,0.1 -0.3,0.2 -0.5,0.8l-0.2,0.4l3.9,1.5c0.7,0.3 0.8,0.2 1.1,-0.5l0.3,0.1l-0.9,2.5l-0.3,-0.1c0.2,-0.7 0.2,-0.8 -0.5,-1.1l-3.9,-1.5l-0.1,0.4c-0.2,0.7 -0.2,0.9 -0.1,1c0.1,0.2 0.3,0.4 0.7,0.6l-0.1,0.3c-0.5,-0.2 -1.1,-0.5 -1.5,-0.7l0.1,-0.2c0.2,0 0.3,-0.2 0.4,-0.4l1.2,-3.3c0.1,-0.2 0.1,-0.3 0,-0.5l0.1,-0.2c0.4,0.1 1,0.3 1.6,0.5l-0.4,0.4z" fill="#005D7F"/>
  <path id="svg_40" d="m113.3,64.5c-0.1,0.6 0,0.7 0.5,1.2c0.5,0.5 0.8,0.8 1.5,1.4c0.2,0.2 0.3,0.2 0.5,0.3l1.1,0.2c0.7,0.2 0.8,0.1 1,-0.7l0.3,0.1l-0.5,2.6l-0.3,-0.1c0.1,-0.7 0.1,-0.8 -0.7,-1l-1,-0.2c-0.2,0 -0.3,0 -0.5,0c-0.5,0.2 -1.2,0.3 -2.1,0.7c-0.6,0.2 -0.8,0.3 -0.9,0.8l-0.3,-0.1l0.5,-2.3l0.3,0.1c0,0.6 0.1,0.6 0.4,0.5c0.7,-0.2 1.4,-0.4 2.1,-0.6c-0.5,-0.4 -1.2,-1 -1.7,-1.3c-0.3,-0.2 -0.4,-0.2 -0.7,0.4l-0.3,-0.1l0.4,-2l0.4,0.1z" fill="#005D7F"/>
  <path id="svg_41" d="m69.4,73.8c16.6,5.1 28,-1.5 31.9,-4.4l-1.9,-2.6c-6.5,5.2 -19.6,7.3 -30.6,3.7c-10.9,-3.6 -21.7,-1.3 -21.8,-1.2l-5.1,1.3l3.4,-5.2l4.5,-7l0.5,-0.7l0.8,-0.2c8.2,-2.1 19.7,1.8 20.2,2c10.9,3.5 18.5,-0.2 21.6,-2.3l-19.3,-25.3l-15.7,22.7c0,0 -0.4,-0.1 -2.9,0c-2,0.1 -2.9,0.4 -2.9,0.4l19.5,-28.3l1.5,-2.2c-19,0.5 -34.4,16.1 -34.4,35.2c0,5 1.1,9.8 2.9,14.1c13.1,-4.3 27.2,-0.2 27.8,0m4.8,-62.4c-26.5,0 -47.9,21.4 -47.9,47.9c0,26.5 21.5,47.9 47.9,47.9c26.5,0 47.9,-21.4 47.9,-47.9c0,-26.5 -21.5,-47.9 -47.9,-47.9m0,94.6c-25.8,0 -46.7,-21 -46.7,-46.7c0,-25.8 21,-46.7 46.7,-46.7c25.8,0 46.7,21 46.7,46.7c0,25.8 -21,46.7 -46.7,46.7m35,-81.7c-9.4,-9.3 -21.8,-14.5 -35,-14.5c-13.2,0 -25.6,5.1 -35,14.5c-9.3,9.3 -14.5,21.8 -14.5,35c0,13.2 5.1,25.6 14.5,35c9.3,9.3 21.8,14.5 35,14.5c13.2,0 25.6,-5.2 35,-14.5c9.3,-9.3 14.5,-21.8 14.5,-35c0,-13.2 -5.2,-25.6 -14.5,-35m-0.3,69.7c-9.3,9.3 -21.6,14.4 -34.7,14.4c-13.1,0 -25.4,-5.1 -34.7,-14.4c-9.3,-9.3 -14.4,-21.6 -14.4,-34.7c0,-13.1 5.1,-25.4 14.4,-34.7c9.3,-9.3 21.6,-14.4 34.7,-14.4c13.1,0 25.4,5.1 34.7,14.4c9.3,9.3 14.4,21.6 14.4,34.7c-0.1,13.1 -5.2,25.4 -14.4,34.7m-35.1,-69.4c-0.1,0 -0.1,0 -0.2,0l1.6,2.1l22.5,29.5l1.2,1.6l-1.5,1.4c-0.4,0.4 -10.7,9.9 -27.6,4.6c0,0 -0.1,0 -0.1,0l-0.1,0c-0.1,0 -10,-3.3 -16.9,-2l-1.7,2.4c4.6,-0.3 11.8,-0.1 19.2,2.2c11.1,3.5 23.8,0 27.7,-4.2l1.9,-1.9l1.4,1.9l4.7,6.3l1.2,1.6l-1.5,1.4c-0.6,0.6 -14.8,13.8 -37.9,6.7c-0.1,0 -12.5,-3.9 -24.4,-0.2c6.2,10.2 17.3,17 30.1,17c19.4,0 35.2,-15.7 35.2,-35.2c0.4,-19.5 -15.3,-35.2 -34.8,-35.2" fill="#005D7F"/>
  <path id="svg_42" d="m39.9,33.9c0,0 0.1,-0.3 0.1,-0.3c0,0 0.1,-0.1 0.1,-0.2c0,0 0,0 0,0c0,0 0,0 0,0c0,-0.1 0,-0.1 0,-0.2c0,0 0,-0.1 0,-0.1l0,0c0,0 0,-0.2 0,-0.3c0,-0.1 0,-0.1 0,-0.2l0,0c0,0 0,0 0,0c0,-0.1 0,-0.1 0,-0.2c0,0 0,0 0,0c0.1,-0.2 0,-0.5 0,-0.7c0,-0.1 0,-0.1 -0.1,-0.2c0,-0.1 0,-0.1 0,-0.1c0,0 0,-0.1 0,-0.1c0,-0.1 0,-0.1 0,-0.2c0,-0.1 -0.1,-0.2 -0.1,-0.3c0,0 0,0 0,0c0,0 0,-0.1 0,-0.1c0,0 0,-0.1 0,-0.1c0,0 0,0 0,0l0,0c0,0 0,-0.1 -0.1,-0.1c0,0 0,0 0,0c-0.1,-0.1 -0.1,-0.1 -0.2,-0.2c0,0 -0.1,-0.1 -0.2,-0.1c0,0 0,0 0,0c0,0 -0.2,0 -0.2,0c0,0 0,0 -0.1,0c0,0 0,0 -0.1,0c0,0 0,0 0,0c0,0 -0.1,0 -0.1,0.1l0,0c0,0 0,0 0,0c0,0 0,0 0,0c0,0 0,0 0,0c0,0 0,0.1 0,0.1l0,0c0,0.1 0,0.2 0.1,0.3l0,0c0,0 0,0.1 0.1,0.1c0,0 0,0 0,0l0,0c0,0 0,0.1 0,0.1c0,0.1 0,0.2 0.1,0.3c0,0 0,0.2 0,0.2c0,0 0,0 0,0c0,0 0,0.1 0,0.1c0,0.1 0.1,0.3 0.1,0.4c0,0.1 0,0.2 0.1,0.3c0,0 0,0.1 0,0.1c0,0 0,0.1 0,0.2c0,0.1 0.1,0.3 0.1,0.4c0,0 0,0 0,0.1l0,0c0,0 0,0 0,0c0,0 0,0 0,0c0,0 0,0.1 0,0.1c0,0 0,0 0,0c0,0 0,0.1 0,0.1l0,0l0,0c0,0 0,0.1 0,0.1c0,0 0,0 0,0c0,0 0,0.1 0,0.1c0,0 0,0 0,0c0,0 0,0 0,0c0,0.1 0,0.2 0,0.2c0,0.1 0,0.1 0,0.1c0,0 0,0 0,0c0,0 0,0.1 0,0.2c0,0 0,0 0,0c0,0 0,0 0,0l0,0c0,0 0.1,0.1 0.1,0.1c0.3,0.4 0.3,0 0.3,-0.1m0.1,0.8c0,0 0,-0.1 0,0c-0.1,-0.1 -0.1,-0.1 -0.2,-0.1c0,0 0,0.1 0,0.1l0,0c0,0 0,0.1 0,0.1c0,0 0,0 0,0c0,0 0,0.1 0,0.1c0,0 0,0 0,0c0,0 0,0.1 0,0.1c0,0.1 0.1,0.1 0.1,0.2c0,0 0,0 0,0c0,0.1 0.1,0.2 0.1,0.3c0,0 0,0.1 0,0.1c0,0 0,0.1 0,0.1c0,0 0,0.1 0,0.1c0,0 0,0 0,0c0,0 0,0 0,0l0,0c0,0 0,0 0,0c0,0.1 0.1,0.1 0.1,0.2l0,0c0,0 0,0.1 0.1,0.1c0,0 0,0.1 0.1,0.1c0,0 0,0 0,0c0,0 0,0 0,0c0,0 0,0 0,0l0,0c0,0 0.1,0.1 0.1,0.1c0,0 0,0 0,0c0.1,0.1 0.1,0.2 0.1,0.3c0.2,0.3 0.3,0.7 0.5,1c0.1,0.2 0.2,0.4 0.3,0.5c0,0 0,0 0,0c0,0.1 0.1,0.1 0.1,0.2c0,0 0,0 0,0c0,0 0,0 0,0c0,0 0,0 0,0c0,0 0,0.1 0,0.1c0,0 0.1,0.1 0.1,0.1c0.1,0.1 0.1,0.2 0.2,0.3c0,0 0.1,0.1 0.1,0.1c0,0 0,0 0,0c0,0 0.1,0.1 0.1,0.1c0,0 0.1,0 0.1,0c0.1,0 0.1,0 0.2,0c0,0 0,0 0,0c0,0 0,0 0,0c0.1,-0.1 0.2,-0.1 0.3,-0.3l0,0l0,0c0.1,-0.1 0.1,-0.2 0.1,-0.3c0,0 0,0 0,-0.1c0,-0.1 0,-0.1 0,-0.2c0,0 0,-0.1 0,-0.1c0,0 0,-0.1 0,-0.2c0,0 0,0 0,0l0,0c0,0 0,0 0,0c0,0 0,0 0,0l0,0c0,0 0,0 0,0l0,0c0,0 0,0 0,-0.1c0,-0.1 -0.1,-0.2 -0.1,-0.3c0,0 0,-0.1 -0.1,-0.1c-0.1,-0.1 -0.1,-0.2 -0.2,-0.2c0,0 -0.1,-0.1 -0.1,-0.1c-0.1,-0.1 -0.1,-0.2 -0.1,-0.3c0,0 0,-0.1 0,-0.1c0,0 0,0 0,0c0,0 0,0 0,0c0,-0.1 -0.1,-0.1 -0.1,-0.1c0,-0.1 -0.1,-0.2 -0.1,-0.3c0,-0.1 -0.1,-0.1 -0.1,-0.2c0,0 0,-0.1 -0.1,-0.1c0,0 0,0 0,-0.1c0,0 0,0 0,0l0,0c0,0 0,0 0,0c0,0 0,0 0,0c0,0 0,0.1 0,0.1c0,0 0,0 0,0c0,0 0,0.1 0,0.1c0,0 0,0 0,0c0,0 0,0 0,0.1l0,0c0,0 0,0.1 0,0.1c0,0.1 0,0.1 0,0.2c0,0 0,0.1 0,0.1c0,0 0,0.1 0,0.1c0,0 0,0 0,0c0,0.1 0,0.1 0,0.2c0,0.1 0,0.1 0,0.2c0,0 0,0 0,0c0,0 0,0.1 0,0.1c0,0 0,0.1 0,0.1c0,0.1 0,0.2 0,0.3c0,0.1 0,0.1 0,0.2c0,0 0,0.1 0,0.2c-0.1,0 -0.3,-0.3 -0.3,-0.3c0,0 -0.1,-0.1 -0.1,-0.1c-0.1,-0.1 -0.2,-0.3 -0.2,-0.4c0,0 0,-0.1 -0.1,-0.1c0,0 0,-0.1 -0.1,-0.1c-0.1,-0.1 -0.1,-0.2 -0.2,-0.3c0,0 0,-0.1 -0.1,-0.1c0,0 0,0 0,-0.1c-0.1,-0.2 -0.2,-0.4 -0.3,-0.6c0,0 0,0 0,0c0,-0.1 -0.1,-0.2 -0.2,-0.4l0,0c-0.1,-0.1 -0.1,-0.2 -0.2,-0.3c-0.1,-0.1 -0.1,-0.4 -0.3,-0.4c0,0 0,0 0,0c-0.1,-0.1 -0.1,-0.2 -0.2,-0.3c0.8,0.4 0.7,0.3 0.7,0.3m4.2,-5.5c0,0 0,0 0,0c-0.1,0 -0.1,0 -0.2,0c0,0 0,0 -0.1,0c-0.1,0 -0.2,0.1 -0.2,0.1c0,0 0,0 0,0c0,0 0,0 0,0.1l0,0l0,0c0,0 0,0 -0.1,0l0,0c0,0 0,0 -0.1,0.1c0,0 -0.1,0.1 -0.1,0.1c-0.1,0 -0.2,0.2 -0.2,0.2c0,0 0,0 0,0l0,0c0,0 0,0 0,0l0,0l0,0c0,0 0,0 0,0l0,0c0,0.1 -0.1,0.1 -0.1,0.2l0,0c0,0 -0.1,0.1 -0.1,0.1c0,0 -0.1,0 -0.1,0.1l0,0c-0.1,0.1 -0.1,0.2 -0.2,0.3l0,0c0,0 0,0 0,0c0,0 0,0.1 -0.1,0.1c0,0 0,0 0,0.1c0,0 -0.2,0.3 -0.2,0.3c0,0 0,0.1 0,0.1c0,0 0,0.1 -0.1,0.1l0,0c0,0 0,0 0,0c0,0 -0.1,0.1 -0.1,0.1c0,0 0,0 0,0.1l0,0c0,0 0,0.1 0,0.1l0,0c0,0 0,0 0,0l0,0l0,0l0,0l0,0c0,0.1 -0.1,0.1 -0.1,0.2l0,0c-0.1,0.1 -0.1,0.2 -0.2,0.3l0,0c0,0.1 -0.1,0.2 -0.1,0.3c0,0 0,0 0,0c0,0.1 -0.1,0.1 -0.1,0.2c0,0 0,0 0,0l0,0c0,0 0,0.1 -0.1,0.1l0,0c0,0 -0.1,0.3 -0.1,0.3c0,0.1 0,0.2 -0.1,0.3c0,0 0,0 0,0c0,0.1 0,0.2 0,0.2c0,0 0,0 0,0c0,0 0,0 0,0l0,0l0,0l0,0c0,0 0,0 0,0c0,0.1 0,0.2 0,0.2c0,0 0,0 0,0c0,0 0,0 0,0c0,0 0,0.1 0,0.2l0,0c0,0 0,0 0,0c0,0.1 0,0.2 0.1,0.3c0,0 0.1,0.2 0.1,0.1l0,0c0,0 0,0 0,-0.1c0,-0.1 0,-0.2 0,-0.2c0,0 0,0 0,0l0,0c0,0 0,0 0,0c0,0 0,-0.1 0,-0.1c0,-0.1 0.1,-0.1 0.1,-0.2c0,0 0,-0.1 0,-0.1c0,0 0,-0.1 0,-0.1c0.1,-0.1 0.1,-0.2 0.2,-0.3l0,0c0,0 0.1,-0.1 0.1,-0.1c0.1,-0.2 0.3,-0.4 0.4,-0.6c0,0 0,0 0,0c0.1,-0.1 0.1,-0.3 0.2,-0.4c0,0 0,0 0,0c0,-0.1 0.1,-0.2 0.1,-0.3c0,0 0,-0.1 0.1,-0.1c0,0 0,0 0,0l0,0l0,0c0.1,-0.1 0.1,-0.2 0.1,-0.2c0,-0.1 0.1,-0.4 0.2,-0.5c0,0 0,-0.1 0,-0.2c0,0 0,0 0,0c0,0 0,0 0,0c0,-0.1 0.1,-0.2 0.1,-0.2c0,0 0,-0.1 0.1,-0.1c0,0 0.1,-0.3 0.2,-0.3c0,0 0,0 0,0l0,0c0,0 0,0.1 0,0.1l0,0c0,0.1 0,0.3 0,0.4c0,0.1 0,0.1 0,0.2l0,0c0,0 0,0 0,0l0,0.1c0,0 0,0.1 0,0.1c0,0 0,0 0,0c0,0.1 0,0.2 0,0.3l0,0.1c0,0.1 0,0.1 0,0.2c0,0.1 0,0.1 0,0.2c0,0 0,0 0,0c0,0 0,0.1 0,0.2c0,0.1 0,0.1 0,0.2l0,0c0,0 0,0.1 0,0.1l0,0c0,0.1 0,0.1 0,0.2c0,0 0,0.1 0,0.1c0,0 0,0.1 0,0.1c0,0 0,0 0,0.1c0,0 0,0 0,0c0,0 0,0 0,0l0,0.1l0,0c0,0 0,0 0,0c0,0 0,0 0,0.1c0,0.1 0,0.1 0,0.1l0,0c0,0 0,0 0,0.1c0,0 0,0 0,0c0,0 0,0.3 0,0.4c0,0 0,0 0,0c0,0.1 0,0.2 0,0.2l0,0c0,0.1 0,0.1 0,0.2c0,0 0,0 0,0.1c0,0 0,0.1 0,0.1c0,0 0,0.1 0,0.1c0,0 0,0.1 0,0.1c0,0 0,0.1 0,0.1c0,0 0,0 0,0l0,0c0,0 0,0.1 0,0.1l0,0c0,0 0,0 0,0l0,0l0,0c0,0 0,0 0,0.1c0,0 0,0.3 0,0.3c0,0 0,0.1 0,0.1c0,0 0,0 0,0c0,0 0,0 0,0.1l0,0.1c0,0.1 0,0.1 0,0.2c0,0.1 0.2,0.2 0.3,0.2c0,0 0.2,0 0.2,0c0,0 0,0 0,0c0,0 0.1,0 0.1,0c0.1,0 0.1,-0.1 0.2,0c0.1,-0.1 0.2,-0.1 0.3,-0.2c0,0 0.1,-0.1 0.1,-0.1l0,0l0,0c0,0 0.1,-0.3 0.1,-0.3l0,0c0,0 0,0 0,-0.1l0,0c0,0 0,-0.1 0.1,-0.1l0,0c0,0 0,0 0.1,-0.1l0,0c0,0 0.1,-0.2 0.1,-0.2c0,0 0,-0.1 0.1,-0.1c0,0 0,0 0,0c0,-0.1 0.1,-0.2 0.2,-0.3c0,0 0.1,-0.3 0.2,-0.3l0,0c0,0 0,0 0,-0.1c0.1,-0.2 0.3,-0.3 0.4,-0.5c0,0 0.1,-0.1 0.1,-0.1c0,0 0,0 0,0c0,0 0,0 0,0c0,0.1 0,0.2 0.1,0.2c0.1,0 0.1,-0.1 0.1,-0.2c0,0 0,-0.1 0,-0.1c0,0 0,0 0,0c0.1,-0.1 0.2,-0.1 0.2,-0.2c0,0 0,-0.1 0.1,-0.1c0,0 0,0 0,0l0,0c0,0 0,-0.1 0,-0.1c0.1,-0.2 0,-0.4 -0.2,-0.4c0,0 -0.1,0 -0.1,0c0,0 -0.1,0 -0.1,0c0,0 -0.2,0 -0.2,0c0,0 0,0 0,0c-0.1,0 -0.1,0 -0.2,0.1l0,0c0,0 0,0.1 -0.1,0.1c0,0 0,0 0,0l0,0c0,0 -0.1,0.1 -0.1,0.1l0,0c0,0 0,0 -0.1,0.1c0,0 0,0 0,0c0,0 -0.1,0 -0.1,0.1l0,0c0,0 0,0 0,0l0,0c0,0 -0.1,0.1 -0.1,0.1l0,0c0,0 0,0 -0.1,0.1l0,0l0,0l0,0c0,0 0,0 0,0l0,0c0,0 0,0 0,0c0,0 0,0 0,0c0,0 -0.1,0.1 -0.1,0.2c0,0 0,0 0,0c0,0 -0.1,0.1 -0.1,0.1l0,0c0,0 0,0 0,0c0,0 0,0 0,0l0,0c0,0 -0.1,0.2 -0.1,0.2c0,0 0,0 0,0c0,0 0,0 0,0c0,0 0,-0.1 0,-0.1c0,-0.1 0,-0.1 0,-0.2c0,-0.1 0,-0.1 0,-0.2c0,-0.1 0,-0.2 0,-0.3c0,-0.1 0,-0.1 0,-0.2c0,0 0,-0.3 0,-0.3c0,0 0.1,-0.6 0.1,-0.7l0,0l0,0c0,0 0,-0.3 0,-0.3c0,0 0,-0.1 0,-0.1c0,0 0,-0.1 0,-0.1c0,0 0,-0.1 0,-0.1l0,0c0,0 0,0 0,0l0,0l0,0c0,0 0,-0.3 0,-0.3c0,0 0,-0.1 0,-0.2c0,0 0,-0.1 0,-0.2c0,-0.1 0,-0.2 0,-0.3l0,-0.3c-0.5,0.2 -0.4,-0.5 -0.8,-0.4" fill="#005D7F"/>
  <path id="svg_43" d="m63.3,19.2c-0.1,-0.1 -0.1,-0.1 -0.2,-0.1l0,0c0,0 0,0 0,0l0,0c0,0 0,0 0,0c0,0 -0.1,0 -0.1,0c0,0 0,0 0,0l0,0c0,0 0,0 0,0c0,0 0,0 0,0c0,0 0,0 0,0l0,0l0,0c0,0 -0.2,0 -0.2,0l0,0c0,0 0,0 -0.1,0c0,0 0,0 0,0c0,0 -0.3,0.2 -0.3,0.2c0,0 0,0 0,0c0,0 0,0 -0.1,0l0,0l0,0c0,0 -0.1,0 -0.1,0c-0.1,0.1 -0.2,0.1 -0.3,0.2c0,0 0,0 0,0c0,0 0,0 0,0c0,0 0,0 0,0l0,0l0,0c0,0 0,0 0,0c0,0 -0.1,0 -0.1,0.1c0,0 -0.1,0 -0.1,0l0,0c-0.1,0 -0.1,0.1 -0.2,0.1l0,0c0,0 -0.1,0.1 -0.1,0.1l0,0c0,0 0,0 0,0c0,0 -0.1,0.1 -0.1,0.1l0,0l0,0l0,0l0,0l0,0l0,0c0,0 -0.2,0.2 -0.2,0.2l0,0c0,0 0,0 -0.1,0.1l0,0c0,0 0,0 0,0c-0.1,0.1 -0.2,0.2 -0.3,0.3c-0.1,0 0,-0.1 0,-0.2c0,-0.1 0.1,-0.3 0.1,-0.3c0,-0.1 0.1,-0.1 0.1,-0.2c0,0 0.1,-0.1 0.1,-0.1l0,0l0,0c0.1,0 0.2,-0.1 0.2,-0.2c0.1,0 0.1,-0.1 0.2,-0.2c0.1,0 0.1,-0.1 0.2,-0.1c0,0 0.2,-0.2 0.3,-0.3l0,0c0,0 0,0 0,0l0,0c0,0 0.1,-0.1 0.1,-0.1c0,0 0.1,-0.1 0.1,-0.2l0,0c0,0 0,-0.1 0,-0.1c0,-0.1 0,-0.1 0,-0.2c0,-0.1 -0.1,-0.1 -0.1,-0.2c0,-0.2 0,-0.4 -0.2,-0.6c0,0 0,0 0,-0.1c0,-0.1 -0.1,-0.1 -0.1,-0.1c0,0 0,0 0,0c0,0 -0.1,-0.1 -0.1,-0.1c0,0 0,0 0,0c0,0 0,-0.2 0,-0.2c0,0 0,-0.1 0,-0.1c0,0 0,-0.1 -0.1,-0.1c0,0 0,0 0,0c0,-0.1 -0.1,-0.1 -0.2,-0.2c0,0 -0.1,-0.1 -0.1,-0.1c0,0 0,0 0,0c0,0 -0.1,-0.1 -0.1,-0.1c0,0 0,0 -0.1,0l0,0c-0.1,0 -0.2,0 -0.3,0c0,0 0,0 -0.1,0c0,0 0,0 0,0c0,0 0,0 0,0l0,0c0,0 0,0 0,0l0,0c0,0 0,0 0,0c-0.1,0.1 -0.2,0.3 -0.1,0.4c0,0 0,0.1 0,0.1l0,0c0,0 0,0 0,0c0.1,0.3 0.1,0.6 0.1,0.8c0,0 0,0.1 0,0.1c0,0.2 0,0.3 -0.1,0.5c0,0.1 0,0.1 0,0.2c0,0 0,0 0,0c0,0 0,0.1 0,0.1l0,0c0,0.1 0,0.1 0,0.1l0,0c0,0 0,0 0,0l0,0l0,0c0,0 0,0 0,0.1c0,0.1 0,0.1 -0.1,0.1l0,0c0,0 0,0 0,0.1c0,0 0,0 0,0l0,0c0,0 0,0 0,0l0,0c0,0 0,0.1 0,0.1c0,0 -0.2,0.2 -0.3,0.2l0,0l0,0c0,0 0,0 0,0c0,0 -0.1,0.1 -0.1,0.1l0,0c0,0 0,0 0,0l0,0c0,0 -0.1,0 -0.1,0c0,0 0,0 0,0c0,0 -0.1,0.1 -0.1,0.1l0,0c0,0 0,0 0,0c0,0 0,0 0,0l0,0c0,0 0,0 0,0c0,0 0,0 0,0c0,0.1 0.1,0.2 0.2,0.2l0,0c0.1,0.1 0.2,0.1 0.3,0.2c0,0 0,0 0,0c0.1,0 0.2,0.1 0.1,0.2c0,0.1 0,0.2 0,0.3l0,0c0,0.1 0,0.2 0,0.2c0,0 0,0 0,0c0,0 0,0 0,0c0,0.1 -0.1,0.1 -0.2,0.2c0,0 0,0 0,0c0,0 -0.1,0.1 -0.1,0.1l0,0l0,0c0,0 0,0 0,0c0,0 -0.1,0.1 -0.1,0.1c0,0 0,0 0,0l0,0c0,0 0,0 0,0l0,0c0,0 -0.1,0.1 -0.1,0.1l0,0c0,0 0,0 -0.1,0.1l0,0c0,0 -0.1,0.1 -0.1,0.1l0,0c0,0 -0.1,0.1 -0.1,0.2c0,0 -0.1,0.1 -0.1,0.1l0,0c0,0 -0.2,0.2 -0.3,0.3c0,0 -0.1,0.1 -0.1,0.1c0,0 -0.1,0.1 -0.1,0.2c0,0 0,0 0,0c0,0 0,0 0,0c0,0 0,0.2 0,0.2c0,0 0,0 0,0c0,0 0.1,0 0.1,0.1c0,0 0,0 0,0c0,0 0.1,0 0.1,0c0,0 0,0 0,0l0,0c0.1,0 0.2,0 0.2,0c0,0 0.1,0 0.1,0c0.1,0 0.1,0 0.2,-0.1l0,0c0.1,-0.1 0.2,-0.2 0.4,-0.3c0,0 0,0 0,0l0,0c0.1,0 0.1,-0.1 0.2,-0.1c0,0 0,0 0,0l0,0l0,0c0,0 0.1,0 0.2,0c0,0 0,0 0.1,0l0,0c0,0 0.1,0 0.1,0c0.1,0 0.1,-0.1 0.1,-0.1c0,0 0.1,-0.1 0.1,-0.1c0,0 0,0 0.1,-0.1l0,0l0,0c0,-0.1 0.2,-0.3 0.3,-0.4c0,0 0,0 0,0c0.1,-0.1 0.1,-0.2 0.2,-0.3l0,0c0,0 0,0 0,0c0,0 0.4,-0.5 0.4,-0.5c0,0.1 -0.1,0.2 -0.2,0.3l0,0c0,0 0,0 0,0.1c0,0 0,0.1 -0.1,0.1c0,0 0,0.1 -0.1,0.1c0,0 0,0.1 -0.1,0.1c0,0 0,0 0,0c0,0 0,0.1 -0.1,0.1c0,0 0,0.1 -0.1,0.1c0,0 0,0 0,0l0,0l0,0c0,0 -0.1,0.1 -0.1,0.1c0,0 0,0 0,0l0,0c0,0 0,0 0,0l0,0c0,0 0,0 0,0.1c0,0 0,0 0,0c0,0 0,0 0,0l0,0c0,0 0,0.1 -0.1,0.1l0,0l0,0l0,0c0,0 -0.1,0 -0.1,0.1l0,0c0,0 0,0 0,0c-0.1,0.1 -0.1,0.1 -0.1,0.2l0,0.2c0,0 0,0 0,0c0,0 0,0 0,0c0,0.1 0,0.2 0.1,0.2c0,0 0.1,0 0.1,0c0,0 0.1,0 0.1,0c0,0 0.1,0 0.1,0c0,0 0,0.1 0,0.1c0,0.1 -0.1,0.2 -0.1,0.2c0,0 0,0.1 -0.1,0.1l0,0c0,0 -0.1,0.1 0,0.1l0,0c0,0 0,0 0,0l0,0c0,0 0,0 0,0c0,0 0,0 0,0c0,0 -0.1,0.1 -0.1,0.1c0,0.1 0,0.1 -0.1,0.2c0,0 0,0.1 0,0.1c0,0 0,0 0,0.1c0,0 0,0 0,0c0,0.1 0,0.2 0,0.3c0,0 0,0 0,0.1c0.1,0.1 0.1,0.1 0.2,0.1c0,0 0,0 0,0c0,0 0,0 0,0c0.1,0 0.1,-0.1 0.1,-0.1c0,0 0.1,0 0.1,0c0,0 0,0.1 0,0.1l0,0l0,0c0,0.1 0,0.1 0,0.2l0,0l0,0c0,0 0,0 0,0c0,0.1 0,0.3 0,0.4c0,0 0,0 0,0c0,0 0,0 0,0c0,0.1 0,0.1 0,0.2c0,0.1 -0.1,0.3 0.1,0.3c0,0 0.1,0 0.1,0.1l0.1,0c0,0 0.1,0 0.1,-0.1c0,0 0,0 0,0c0,0 0,0 0,0l0.1,-0.1c0,0 0,0 0,0l0,0l0,0c0,0 0,0 0,-0.1c0,0 0,-0.1 0,-0.1c0,0 0,-0.1 0.1,-0.1c0,-0.1 0,-0.2 0,-0.3c0,-0.1 0,-0.1 0,-0.2c0,-0.1 0,-0.2 0,-0.3c0,-0.1 0,-0.2 0,-0.3l0,-0.1c0,-0.2 0.1,-0.3 0.1,-0.5c0,0 0,0 0,0l0,0c0,0 0,0 0,0c0,0 0,0 0,0c0,-0.1 0.1,-0.2 0.1,-0.2c0,0 0,0 0,0s0.1,-0.1 0.1,-0.2c0,-0.1 0.1,-0.2 0.1,-0.3c0,0 0,-0.2 0,-0.2c0,0 -0.2,-0.2 -0.2,-0.2c0,0 0,0 0,0c0,0 0,0 0,0c0,0 0,-0.1 -0.1,-0.1l0,0l0,0c0,-0.1 0.1,-0.1 0.1,-0.2c0,0 0,0 0,0l0,0c0,0 0,0 -0.1,0c0,0 0,0 -0.1,0l0,0c0,0 0,0 0,0l0,0l0,0c0,0 0,0 0,0c0,0 0,0 0,0c0,0 0,0 0,0c0,0 0,0 0,0l0,0c0,0 -0.1,0 -0.1,0c0,0 0,-0.1 0.1,-0.1c0,0 0,0 0,0l0,0c0.1,-0.1 0.1,-0.1 0.1,-0.2l0,0l0,0c0,0 0,0 0,0c0,0 0,0 0,0c0,0 0,0 0,0c0,0 0,0 0,0l0,0c0,0 0,0 0,0c0,0 0,0 0,0c0,0 0,0 0,0l0,0l0,0c0,0 0,0 0,0c0,0 0,0 0,0c0,0 0,0 0,0c0.1,0 0.4,-0.4 0.5,-0.5c0,0 0,-0.1 0.1,-0.1l0,0l0,0l0,0l0,0c0,0 0,0 0,0l0,0l0,0c0.1,0 0.4,-0.4 0.4,-0.4c0,0 0,0 0,-0.1c0,-0.1 0,-0.1 -0.1,-0.2c0,0 -0.1,-0.1 -0.1,-0.1s0,0 0,0c0,0 -0.3,0 -0.2,-0.1c0,0 0,0 0,0l0,0c0,0 0,-0.1 0.1,-0.1c0,0 0.1,0 0.1,-0.1c0,0 0,0 0,0l0,0c0,0 0.1,0 0.1,-0.1c0.1,-0.1 0.2,-0.1 0.2,-0.2c0.1,-0.1 0.2,-0.1 0.3,-0.2c0,0 0.1,0 0.1,-0.1l0,0c0,0 0,0 0,0c0,0 0.1,-0.1 0.2,-0.1c0,0 0.1,0 0.1,0c0.2,0 0.1,0.3 0.1,0.4c0,0 0,0.1 0,0.1c0,0 0,0 0,0c0,0.1 0,0.2 0,0.3c0,0 0,0 0,0c0,0.2 -0.1,0.4 -0.1,0.6c0,0 0,0.1 0,0.1l0,0c0,0.1 0,0.1 0,0.2c0,0.3 0,0.6 -0.1,0.9c0,0.2 0,0.4 -0.1,0.7c0,0 0,0 0,0.1c0,0.1 0,0.2 0,0.2l0,0c0,0.1 0,0.1 0,0.2c0,0 0,0 0,0c0,0 0,0 0,0c0,0 0,0 0,0c0,0 0,0 0,0c0,0 0,0 0,0c0,0.1 -0.1,0.1 -0.1,0.2c0,0 0,0 -0.1,0c0,0 0,0 -0.1,0c0,0 0,0 -0.1,0c-0.1,0.1 -0.2,0.1 -0.3,0.2l0,0l0,0c0,0 0,0.1 0,0.1c0,0 0.1,0.1 0.1,0.1c0.3,0.2 0.4,0 0.6,-0.2c0.1,0 0.2,-0.1 0.2,-0.2c0,0 0,-0.1 0,-0.1c0.1,-0.2 0.1,-0.3 0.2,-0.5c0,-0.1 0,-0.2 0,-0.3c0,-0.1 0,-0.1 0,-0.2c0,-0.1 0,-0.3 0,-0.4c0,0 0,-0.1 0,-0.2c0,-0.2 0,-0.4 0,-0.6l0,0c0,-0.1 0,-0.2 0,-0.3l0,0c0,0 0,0 0,0c0,0 0,-0.1 0,-0.1c0,0 0,-0.1 0,-0.1c0,-0.1 0,-0.1 0,-0.2c0.1,-0.3 0.1,-0.6 0.2,-0.9c0,-0.1 0,-0.3 0.1,-0.3c0,-0.1 0,-0.1 0,-0.2c-0.7,0.7 -0.8,0.8 -0.9,0.8m-4.8,4.3l0,0c0,0 0,0 0,0c-0.1,-0.1 -0.1,-0.1 0,0c-0.1,-0.1 -0.2,-0.1 -0.2,-0.1c0,0 -0.1,0 -0.1,0l0,0c0,0 0,0 0,0l0,0c0,0 0,0 0,0l0,0l0,0c0,0 -0.1,0.1 -0.1,0.1c0,0 0,0 0,0c0,0 0,0 0,0c0,0 0,0.1 0,0.2c0,0 0,0 0,0c0,0 0,0.1 0,0.1c0,0 0,0 0,0c0,0.1 0,0.2 -0.1,0.3l0,0c0,0 0,0 0,0c0,0.1 -0.1,0.1 -0.1,0.2c0,0 0,0 0,0c0,0 0,0 0,0c0,0 0,0 0,0c0,0 0,0 0,0c0,0 0,0 0,0l0,0c0,0 0,0.2 0,0.2c0,0 0,0 0,0c0,0 0,0 0,0c0,0 0,0.1 0,0.1c0,0 0,0 0,0.1l0,0c0,0 0.1,0.1 0.1,0.1c0,0 0,0 0,0l0,0c0,0 0,0 0,0c0.1,0 0.1,0.1 0.2,0.1c0,0 0.1,0 0.1,0.1c0,0 0,0 0.1,0c0,0 0.1,0 0.1,0c0,0 0,0 0,0c0,0 0,0 0,0c0,0 0,0 0,0c0,0 0,0 0,0c0.2,-0.1 0.1,-0.5 0.2,-0.7l0,0l0,0l0,-0.1c0,0 0,0 0,0c0,0 0,0 0,0l0,0l0,0c0,-0.1 0,-0.2 0,-0.2l0,0c0,-0.1 0,-0.1 0,-0.2c0,-0.1 0,-0.1 0,-0.2l0,-0.1c0,-0.1 -0.1,-0.2 -0.1,-0.3c0,0 0,-0.1 0,-0.1c-0.1,0.5 -0.1,0.4 -0.1,0.4c0,0 0,0 0,0" fill="#005D7F"/>
  <path id="svg_44" d="m87.1,22.4c0,-0.1 -0.1,-0.2 -0.1,-0.3c0,0 0,0 0,0c0,0 -0.1,-0.1 -0.2,-0.1c0,0 0,0 0,0c0,0 0,0 -0.1,0c-0.1,0 -0.1,-0.1 -0.2,-0.1c-0.1,0 -0.2,-0.1 -0.3,-0.1c0,0 -0.1,0 -0.1,0c0,0 0,0 0,0c0,0 -0.1,0 -0.1,0c-0.1,0 -0.2,0 -0.3,0c0,0 0,0 0,0c0,0 0,0 -0.1,0l0,0l0,0c0,0 -0.1,0 -0.1,0.1c0,0 -0.1,0 -0.1,0.1c0,0.1 0.3,0.4 0.4,0.4l0,0c0,0 0.1,0 0.1,0.1c0,0 0,0 0,0c0.1,0 0.1,0.2 0.1,0.2c0,0 0,0 0,0.1c0,0 -0.1,0 -0.1,0.1l0,0l0,0c0,0 0,0 0,0c0,0.1 0,0.2 0.1,0.2c0,0 0,0 0,0c0,0 0,0 0,0c0,0 0.1,0.1 0.2,0c0.1,0 0.1,0 0.1,0c0.1,0 0.2,0 0.2,-0.1c0.1,0 0.1,0 0.2,0c0,0 0.1,0 0.1,0c0.1,-0.3 0.3,-0.4 0.3,-0.6m-0.6,-3.1c0,0 0,0 0,0l0,0c0,-0.1 0,-0.1 0,0c0.1,-0.1 0.2,-0.1 0.3,-0.1l0,0c0,0 0,0 0.1,0c0.1,0 0.2,-0.1 0.3,-0.2c0.1,0 0.2,-0.2 0.3,-0.2c0,0 0.1,-0.1 0.1,-0.1l0,0c0,0 0.1,-0.1 0.1,-0.2l0,0c0,0 0,-0.1 0,-0.1c0,0 0,0 0,0c0,0 0,-0.1 0,-0.1c0,0 0,0 -0.1,-0.1c0,0 0,0 0,0c-0.1,0 -0.2,-0.1 -0.3,-0.1l0,0l0,0c0,0 0,0 0,0l0,0c0,0 0,0.1 -0.1,0.1c0,0 -0.1,0.1 -0.1,0.1l0,0c0,0 0,0 0,0c0,0 0,0 0,0c0,0 -0.1,0 -0.1,0l0,0c0,0 -0.1,0 -0.1,0.1c-0.1,0 -0.1,0.1 -0.2,0.1c0,0 -0.1,0 -0.2,0.1c0,0 0,0 0,0c0,0 0,0 0,0c0,0 -0.1,0 -0.1,0c0,0 -0.1,0 -0.1,0c0,0 0,0 0,0c-0.1,0 -0.2,0.1 -0.3,0.1l0,0c0,0 0,0 0,0c0,0 0,0 0,0l-0.1,0l0,0c0,0 -0.1,0 -0.1,0l0,0c0,0 0,-0.1 0,-0.1c0,0 0.1,-0.1 0.1,-0.1c0,-0.1 0.1,-0.2 0.1,-0.3c0,-0.1 0.1,-0.2 0.1,-0.3c0.1,-0.2 0.2,-0.4 0.1,-0.6l0,0c0,0 0,0 0,0l0,-0.1c0,0 0,0 0,-0.1c0,-0.1 -0.1,-0.3 -0.1,-0.4c0,-0.1 -0.1,-0.3 -0.2,-0.4c0,0 0,0 0,0c0,0 -0.1,-0.2 -0.1,-0.2c0,-0.1 -0.2,-0.3 -0.2,-0.3c0,0 0,0 0,0c0,0 -0.1,0 -0.1,-0.1c0,0 0,0 0,0l-0.1,0c0,0 0,0 -0.1,0l0,0l0,0l0,0c-0.3,0.3 -0.3,0.3 -0.3,0.4c0,0 0,0 0,0.1c0,0.1 0,0.2 0,0.2c0,0.1 0,0.1 0.1,0.2c0,0 0,0.1 0,0.1c0,0 0,0 0,0c0,0.1 0,0.2 0,0.2c0,0.2 0.1,0.4 0.1,0.5c0,0.1 -0.1,0.2 -0.1,0.3c0,0 0,0 0,0c0,0 0,0.1 0,0.1c0,0.1 0,0.1 -0.1,0.2c0,0 0,0 0,0c0,0.1 0,0.2 -0.1,0.2c0,0.1 0,0.1 -0.1,0.2c0,0 0,0.1 -0.1,0.1c0,0 0,0 0,0c0,0 0,0.1 -0.1,0.1c0,0 0,0 0,0c0,0 0,0.1 -0.1,0.1l0,0c0,0 0,0 0,0c0,0 -0.1,0.1 -0.1,0.1l0,0c0,0 -0.1,0 -0.1,0l0,0c0,0 0,0 0,0c0,0 0,0 -0.1,0c-0.1,0 -0.1,0 -0.2,0c0,0 0,0 0,0l0,0c0,0 0,0 0,0c0,0 0,0 0,0l0,0c0,0 0,0 -0.1,0c0,0 0,0 0,0c0,0 0,0 0,0l0,0c0,0 -0.1,0 -0.1,0c0,0 0,0 0,0l0,0l0,0c0,0 0,0 0,0l0,0c0,0 -0.1,0 -0.1,0l0,0l-0.1,0c-0.1,0 -0.1,0 -0.2,0l0,0l0,0c0,0 0,0 -0.1,0c0,0 -0.1,0 -0.1,0l0,0c0,0 0,0 -0.1,0.1c0,0 0,0 0,0.1c0,0.1 0.1,0.2 0.2,0.2c0.1,0 0.3,0.1 0.4,0.1l0,0c0,0 0,0 0,0c0.1,0 0.1,0 0.1,0c0,0 0.1,0 0.1,0l0,0c0,0 0,0 0,0l0,0c0,0 -0.1,0.1 -0.1,0.1c0,0 0,0 0,0l0,0c0,0 0,0.1 -0.1,0.1c0,0 0,0 0,0c0,0 0,0 0,0.1c0,0 0,0 0,0.1c0,0 0,0 0,0l0,0c0,0 -0.1,0.1 -0.1,0.1c0,0.1 -0.1,0.1 -0.1,0.2c0,0 0,0 0,0.1c0,0 0,0.1 -0.1,0.1c0,0 0,0 0,0c0,0 0,0.1 -0.1,0.1c0,0 0,0 0,0l0,0c0,0 0,0 0,0c0,0 0,0 0,0c0,0 0,0 0,0c0,0 0,0 0,0c0,0 0,0.1 -0.1,0.1c0,0 0,0 0,0c0,0.1 -0.1,0.1 -0.1,0.2l0,0c0,0 0,0 0,0c-0.1,0.1 -0.1,0.1 -0.2,0.2c0,0 -0.1,0.1 -0.1,0.1c-0.1,0.1 -0.1,0.1 -0.2,0.2c0,0 0,0 0,0c0,0 -0.1,0.1 -0.1,0.1c0,0 0,0 0,0l0,0c0,0 -0.1,0.1 -0.1,0.1l0,0c0,0 0,0 0,0l0,0c0,0 -0.1,0.1 -0.1,0.2c0,0 0,0 0,0c-0.1,0.1 -0.2,0.1 -0.2,0.2c-0.1,0.1 -0.1,0.1 -0.2,0.2c-0.1,0 -0.1,0.1 -0.2,0.1l0,0c-0.1,0.1 0.1,0.3 0.1,0.3c0.2,0 0.4,-0.1 0.5,-0.2c0.1,0 0.1,0 0.2,-0.1c0,0 0,0 0,0c0,0 0.1,-0.1 0.1,-0.1c0,0 0.2,-0.1 0.2,-0.1c0,0 0,0 0,0c0,0 0,0 0,0l0,0l0,0l0,0c0,0 0,0 0,0l0,0c0.1,0 0.1,-0.1 0.2,-0.2c0,0 0,0 0,0l0,0c0,0 0,0 0,0c0,0 0,0 0,0c0.1,-0.1 0.2,-0.2 0.3,-0.2c0.1,-0.1 0.1,-0.1 0.2,-0.2c0,0 0,0 0,0c0,0 0.1,-0.1 0.1,-0.1c0,0 0,0 0.1,-0.1l0,0c0,0 0.1,-0.1 0.1,-0.1c0,0 0,0 0,0c0.1,-0.1 0.2,-0.2 0.3,-0.3c0,0 0.1,-0.1 0.1,-0.1c0.1,0 0.3,-0.3 0.3,-0.3c0.1,-0.1 0.2,-0.2 0.3,-0.3c0,0 0,0 0,-0.1c0.1,-0.1 0.1,-0.2 0.2,-0.3c0,0 0.1,-0.1 0.1,-0.1c0,0 0.3,-0.4 0.3,-0.4c0.1,-0.1 0.4,-0.1 0.5,-0.2c0.1,0.7 0.4,0.6 0.6,0.5c0,0 0,0 0,0" fill="#005D7F"/>
  <path id="svg_45" d="m104.2,28.5l0,0c0,0 0,0 0,0c-0.1,0 -0.1,0 -0.2,0c0,0 0,0 0,0c0,0 -0.1,0 -0.1,0c-0.1,0 -0.1,0 -0.2,-0.1l0,0c0,0 -0.1,0 -0.1,0l0,0l0,0c0,0 0,0 0,0l0,0c0,0 0,0 -0.1,0l0,0c0,0 0,0 0,0c0,0 -0.1,0 -0.1,-0.1c0,0 0,0 -0.1,0l0,0c0,0 0,0 0,0l0,0c-0.1,0 -0.1,-0.1 -0.1,-0.1l0,0c0,0 0,0 -0.1,0l0,0l0,0c0,0 -0.1,0 -0.1,0c0,0 0,0 -0.1,0l0,0c0,0 0,0 0,0c0,0 0,0 0,0c0,0 0,0 0,0l0,0c0,0 0,0 0,0c0,0 0,0 0,0l0,0c0,0 0,0 0,0c0,0 0,0 -0.1,0c0,0 0,0 0,0l0,0c0,0 0,0 -0.1,0c0,0 -0.1,0 -0.1,-0.1c0,0 0,0 -0.1,0l0,0c0,0 0,0 0,0c0,0 0,0 0,0c0,0 0,0 0,0c0,0 0,0 0,0l0,0c0,0 0,0 0,0c0,0 0,0 0,0c0,0 -0.1,-0.1 -0.2,-0.1c0,0 0,0 -0.1,0c0,0 0,0 0,0c0,0 -0.1,0 -0.1,0c0,0 0,0 -0.1,0c-0.1,0.1 -0.2,0.2 -0.2,0.4c0,0 0,0.1 0,0.1c0,0 0,0 0,0c0,0.2 0,0.3 0.1,0.4l0.1,0.1l0,0c0,0 0,0 0,0c0,0 0,0 0.1,0c0,0 0,0 0.1,0c0,0 0.1,0 0.1,0.1c0,0 0.3,0.1 0.4,0.1c0,0 0.2,0 0.2,0l0,0c0,0 0,0 0,0l0,0c0,0 0,0 0,0l0,0c0.1,0 0.1,0 0.2,0c0,0 0.1,0 0.1,0c0,0 0.1,0 0.1,0c0,0 0,0 0,0c0,0 0.4,0 0.4,0c0,0 0,0 0,0c0,0 0.1,0 0.1,0c0,0 0.1,0 0.1,0c0,0 0,0 0,0c0,0 0.1,0 0.2,0c0.1,0 0.2,0 0.2,0l-0.1,-0.7c-0.1,0.1 -0.1,0.1 0,0c0,0 0,0 0,0m-2.7,5.2c0,0 0,0 0,0c0.1,-0.1 0.1,-0.1 0.1,-0.2c0,0 0,0 0,0c0,0 0,0 0,0c0,0 0,0 0,0c0,0 0,0 0,0c0,-0.1 0.1,-0.2 0.1,-0.2c0,0 0.1,-0.3 0.1,-0.4l0,0c0,0 0,-0.2 0,-0.2c0,0 0.1,0 0.2,0.1c0,0 0.1,0 0.1,0.1c0.1,0.1 0.2,0.1 0.3,0.2l0,0c0,0 0,0.1 0,0.1c0,0 -0.1,0 -0.1,0c0,0 0,0 0,0c0,0 0,0.1 0.1,0.1c0.1,0 0.2,0.1 0.3,0.2c0.1,0.1 0.2,0.2 0.3,0.2c0,0 0.1,0 0.2,0c0,0 0,0 0,0l0,0l0,0c0,0 0,0 0.1,0l0,0l0,0c0,0 0.1,0 0.1,0l0,0c0,0 0.1,0 0.1,0c0.1,-0.1 0.1,-0.3 0,-0.4c0,0 0,-0.1 0,-0.1c0,0 0,-0.1 -0.1,-0.1c-0.1,-0.1 -0.1,-0.2 -0.2,-0.3c0,0 0,0 0,0c0,0 0,0 -0.1,-0.1c0,0 -0.1,0 -0.1,-0.1l0,0c0,0 0,0 0,0l0,0l0,0l0,0l0,0l0,0c0,0 0,0 -0.1,0c0,0 0,0 -0.1,-0.1c0,0 0,0 -0.1,0c0,0 0,0 0,0c0,0 0,0 0,0l0,0c0,0 0,0 0,0c0,0 0,0 0,0c0,0 0,0 -0.1,0c0,0 0,0 -0.1,0l0,0l0,0c0,0 0,0 -0.1,0l0,0c0,0 0,0 -0.1,0c0,0 -0.1,0 -0.1,-0.1c0,0 0,0 0,0c0,0 0,0 0,0l0,0l0,0c0.1,-0.1 0.2,-0.1 0.3,-0.1c0,0 0,0 0,0c0.1,0 0.1,0 0.2,-0.1c0.1,-0.1 0.3,-0.1 0.4,-0.2c0,0 0,0 0,0c0,0 0,0 0,-0.1c0,0 0,0 0,0c0,-0.1 0.1,-0.1 0.1,-0.2c0,0 0.1,-0.1 0.1,-0.2c0,0 0,0 0,-0.1c0,0 0,0 0,-0.1c0,0 0,-0.1 0,-0.1c0,0 0,0 0,-0.1c0,0 0,0 0,0l0,0c-0.1,-0.1 -0.2,-0.2 -0.2,-0.3l0,0l0,0l0,0c0,0 0.1,0 0.1,0l0,0c0,0 0.1,0 0.2,0l0,0c0,0 0,0 0,0l0,0c0,0 0,0 0,0c0,0 0.1,0 0.1,0l0,0l0,0c0,0 0.1,0 0.1,0c0,0 0,0 0,0c0,0 0.1,0 0.1,0c0,0 0,0 0,0c0,0 0.4,0.1 0.5,0.1l0,0c0,0 0.1,0 0.1,0l0,0c0,0 0,0 0,0l0,0c0,0 0.3,0.1 0.3,0.1l0,0l0,0c0.1,0 0.1,0 0.2,0c0,0 0,0 0,0l0,0c0,0 0,0 0,0l0,0c0,0 0,0 0,0c0,0 0,0 0,0c0,0 0,0 0,0c0,0 0,0 0.1,0l0,0c0,0 0,0 0,0l0,0c0,0 0.1,0 0.1,0l0,0l0,0c0,0 0.3,0.1 0.3,0.1l0,0c0,0 0,0 0,0l0,0c0,0 0,0 0,0l0,0c0,0 0,0 0,0l0,0c0,0 0,0 0,0c0.1,0 0.1,0 0.2,0c0,0 0.1,0.1 0.2,0.1l0,0c0.1,0 0.2,0.1 0.3,0.1c0.1,0 0.1,0.1 0.2,0.1c0.1,0 0.2,0 0.3,0.1c0.1,0 0.1,0 0.2,0.1c0.1,0 0.1,0 0.2,0.1c0.1,0 0.2,0.1 0.3,0.1l0,0l0,0c0,0 0.1,0 0.1,0c0,0 0,0 0,0c0,0 0.1,0 0.2,0c0,0 0.1,0 0.1,0c0,0 0.1,0 0.1,0c0,0 0,0 0,0c0,0 0.3,0 0.3,0c0.1,0 0.2,0 0.3,-0.1c0,0 0,0 0,0c0,0 0,0 0,0c0.1,0.1 0.4,-0.1 0.4,-0.2l0,0c0.1,-0.1 0.1,-0.2 0.2,-0.3l0,0c0,0 0,-0.2 0,-0.2c0,0 0,-0.1 0,-0.1c0,0 0,0 0,0c0,0 0,-0.1 0,-0.1c0,-0.1 0,-0.1 -0.1,-0.2c0,0 0,-0.1 0,-0.1l0,0l0,0l-0.1,-0.1l0,0l0,0l0,0c0,0 0,0 -0.1,0c0,0 0,0 0,0l0,0l0,0c0,0 -0.1,-0.1 -0.1,-0.1c0,0 -0.1,-0.1 -0.1,-0.1l0,0c0,0 0,0 0,0l0,0c0,0 0,0 -0.1,0c0,0 0,0 0,0l0,0c0,0 0,0 0,0l0,0c0,0 0,0 0,0c0,0 0,0 -0.1,0c0,0 0,0 0,0l0,0l0,0c0,0 -0.1,0 -0.1,-0.1l0,0c0,0 0,0 0,0c0,0 -0.1,0 -0.1,-0.1c0,0 0,0 0,0c0,0 0,0 -0.1,0l0,0l0,0c0,0 0,0 0,0l0,0l0,0c0,0 0,0 0,0c0,0 -0.1,-0.1 -0.2,-0.1c0,0 -0.1,0 -0.1,0c0,0 0,0 0,0l0,0c0,0 -0.1,0 -0.1,-0.1l0,0c0,0 0,0 -0.1,0l0,0c0,0 0,0 0,0l0,0c0,0 -0.1,0 -0.1,0c-0.1,0 -0.2,-0.1 -0.3,-0.1c0,0 0,0 0,0c0,0 0,0 0,0c-0.1,0 -0.2,-0.1 -0.3,-0.1c0,0 0,0 -0.1,0l0,0l0,0l0,0l0,0c0,0 0,0 0,0c0,0 0,0 0,0l0,0c0,0 0,0 0,0c0,0 0,0 0,0c0,0 0,0 0,0c0,0 0,0 0,0l0,0c0,0 0,0 0,0c0,0 0,0 -0.1,0c-0.1,0 -0.1,0 -0.2,0c0,0 0,0 0,0c0,0 0,0 0,0l0,0c0,0 0,0 0,0c0,0 0,0 -0.1,0l0,0c0,0 0,0 0,0c-0.1,0 -0.1,0 -0.2,-0.1c0,0 0,0 0,0c0,0 -0.1,0 -0.1,-0.1c0,0 0,0 0,0l0,0l0,0c0,0 0,0 0,0c0,0 0,0 0,0l0,0c0,0 0,0 0,0c0,0 0,0 0,0c-0.1,-0.1 -0.1,-0.1 -0.1,-0.2c0,0 0,0 0,0l0,0l0,0c0,0 0,0 0,0l-0.1,-0.1c0,0 0,0 0,0c0,0 0,0 -0.1,0c0,0 -0.1,0 -0.1,0l0,0c0,0 -0.1,0 -0.1,0c0,0 0,0 0,0c0,0 -0.1,0 -0.1,0l0,0c0,0 -0.1,0.1 -0.1,0.1c0,0 0,0 0,0c0,0 -0.1,0.1 -0.1,0.1c0,0 0,0 0,0.1l0,0c0,0 0,0.2 0,0.3l0,0l0,0c0,0 0,0 0,0c0,0 0,0 0,0c0,0.1 0,0.2 0,0.2c0,0 0,0 0,0c0,0.1 0,0.1 0,0.2c0,0 0,0 0,0c0,0 0,0 0,0.1c0,0 0,0.1 0,0.1c0,0 0,0 0,0c0,0 0,0 0,0c0,0 0,0.2 0,0.2c0,0 0,0 0,0.1c0,0 0,0.1 0,0.1c0,0 0,0.1 0,0.1c0.1,0 0.3,0.1 0.3,0.1c0,0 0,0 0,0c0.1,0 0.2,0 0.3,-0.1c0,0 0,0 0,0l0,0l0,0c0,0 0,0 0,0c0,0 0,-0.1 0,-0.1c0,0 0,0 0,0c0,0 0,0 0,0c0,0 0.1,-0.1 0.1,-0.1l0,0c0,0 0,0 0,0c0.1,0 0.1,0 0.2,0c0,0 0,0 0.1,0c0,0 0,0 0,0l0,0c0,0 0,0 0,0c0,0 0.1,0 0.1,0c0,0 0.1,0 0.1,0c0,0 0,0 0,0l0,0c0,0 0.2,0.1 0.2,0.1l0,0c0,0 0.1,0 0.1,0c0,0 0.1,0 0.1,0.1c0,0 0.1,0 0.1,0c0.1,0 0.1,0.1 0.2,0.1c0,0 0,0 0,0c0,0 0,0 0,0l0,0c0,0 0.1,0 0.1,0c0.1,0.1 0.2,0.1 0.3,0.2c0,0 0,0 0.1,0c0,0 0,0 0.1,0.1l0,0l0,0c0,0 -0.1,0 -0.1,0c-0.2,0 -0.4,0 -0.6,0c0,0 -0.1,0 -0.2,0l0,0c-0.2,0 -0.5,-0.1 -0.7,-0.1l0,0c0,0 0,0 0,0c0,0 0,0 -0.1,0c0,0 0,0 0,0l0,0c0,0 0,0 0,0l0,0c0,0 -0.1,0 -0.1,0c0,0 -0.3,0 -0.3,0l0,0c0,0 0,0 0,0l0,0l0,0c0,0 0,0 0,0l0,0l0,0l0,0c0,0 0,0 -0.1,0c0,0 -0.1,0 -0.1,0c0,0 0,0 0,0l0,0l0,0c0,0 0,0 -0.1,0c0,0 0,0 -0.1,0l0,0l0,0c-0.1,0 -0.1,0 -0.2,0l0,0c-0.1,0 -0.2,0 -0.4,-0.1c0,0 0,0 0,0l0,0c0,0 -0.1,0 -0.1,0c0,0 -0.1,0 -0.1,0c0,0 -0.1,0 -0.1,0l-0.1,0l0,0l0,0c0,0 0,0 0,0c0,0 0,0 0,0l0,0c-0.1,0 -0.2,0 -0.2,0c0,0 -0.1,0 -0.1,0c0,0 0,0 0,0l0,0l0,0c0,0 -0.1,0 -0.1,0c-0.1,0 -0.1,0 -0.1,0c0,0 0,0 0,0l0,0l0,0c0,0 0,0 0,0l0,0c-0.1,0 -0.2,0 -0.3,0c0,0 -0.2,-0.1 -0.2,-0.1c-0.1,0 -0.1,0 -0.2,0c0,0 0,0 -0.1,0l0,0l0,0c0,0 -0.1,0 -0.2,0.1c0,0 0,0 0,0c0,0 0,0 0,0c0,0 -0.1,0.1 -0.2,0.1c-0.1,0.1 -0.2,0.2 -0.3,0.3c0,0 0,0 0,0c0,0 0,0 0,0c0,0 0,0 0,0c0,0 0,0 0.1,0.1c0,0 0,0 0.1,0c0,0 0.1,0 0.1,0c0,0 0,0 0.1,0c0,0 0,0 0,0c0.1,0 0.1,0.1 0.2,0.1c0.1,0 0.1,0.1 0.2,0.1c0,0 0,0 0,0c0,0.1 -0.4,0.4 -0.5,0.4c-0.1,0.1 -0.2,0.2 -0.4,0.3c-0.1,0.1 -0.1,0.1 -0.3,0.1l0,0c0,0 0,0 0,0l0,0c-0.2,0 -0.5,-0.1 -0.7,-0.1c0,0 0,0 -0.1,0c-0.1,0 -0.1,0 -0.2,0.1c0,0 0,0 0,0l-0.1,0.1c0,0 -0.1,0 -0.1,0c-0.1,0.1 -0.1,0.1 -0.1,0.2c0,0 0,0 0,0.1c0,0 0,0.1 0,0.1c0,0 0,0.1 0,0.1c0,0 0,0 0,0c0,0 0,0 0,0c0,0 0,0 0,0c0,0.1 0,0.3 0.1,0.4c0,0 0,0 0,0.1c0,0.2 0,0.3 0,0.5l0,0c0,0.1 0,0.2 0.1,0.2c0,0 0,0 0,0l0,0c0.2,0.3 0.6,0.5 0.9,0.5c0,0 0.1,0 0.1,0c0.1,0 0.3,-0.1 0.4,-0.1c-0.6,-0.9 -0.5,-1 -0.5,-1m-0.7,-0.5c0,0 0,0 0,0l0,0c-0.1,-0.1 -0.1,-0.2 -0.2,-0.4c-0.1,-0.2 -0.1,-0.5 0,-0.5l0,0c0,0 0.1,-0.1 0.1,-0.1c0.1,0 0.3,0 0.4,0.1c0,0 0,0.1 0,0.1c0,0.1 0,0.2 -0.1,0.3l0,0c0,0 0,0 0,0.1c0,0.1 -0.1,0.3 -0.1,0.3l0,0c0,0 0,0 0,0c0,0.1 0,0.2 -0.1,0.1" fill="#005D7F"/>
  <text xml:space="preserve" text-anchor="start" font-family="Helvetica, Arial, sans-serif" font-size="24" id="svg_46" y="-67.302083" x="326.5" stroke-width="0" stroke="#000" fill="#000000"/>
 </g>
</svg>